HIERARCHY
ROOT Hips
{
 OFFSET 0.000000 0.000000 0.000000
 CHANNELS 6 Xposition Yposition Zposition Yrotation Xrotation Zrotation
 JOINT Chest
 {
  OFFSET 0.000000 9.585900 0.002600
  CHANNELS 3 Yrotation Xrotation Zrotation
  JOINT Chest2
  {
   OFFSET 0.000000 9.601200 -0.005300
   CHANNELS 3 Yrotation Xrotation Zrotation
   JOINT Chest3
   {
    OFFSET 0.000000 9.561800 0.000000
    CHANNELS 3 Yrotation Xrotation Zrotation
    JOINT Chest4
    {
     OFFSET 0.000000 9.552100 0.000000
     CHANNELS 3 Yrotation Xrotation Zrotation
     JOINT Neck
     {
      OFFSET 0.000000 14.453000 0.000000
      CHANNELS 3 Yrotation Xrotation Zrotation
      JOINT Head
      {
       OFFSET 0.000000 8.936500 -0.011300
       CHANNELS 3 Yrotation Xrotation Zrotation
       End Site
       {
        OFFSET 0.000000 17.073600 -0.006000
       }
      }
     }
     JOINT RightCollar
     {
      OFFSET -2.921100 9.558500 0.000000
      CHANNELS 3 Yrotation Xrotation Zrotation
      JOINT RightShoulder
      {
       OFFSET -13.519700 0.000000 0.000000
       CHANNELS 3 Yrotation Xrotation Zrotation
       JOINT RightElbow
       {
        OFFSET 0.000000 -29.696600 0.000000
        CHANNELS 3 Yrotation Xrotation Zrotation
        JOINT RightWrist
        {
         OFFSET 0.000000 -24.004700 0.000000
         CHANNELS 3 Yrotation Xrotation Zrotation
         End Site
         {
          OFFSET 0.000000 -17.728500 0.000000
         }
        }
       }
      }
     }
     JOINT LeftCollar
     {
      OFFSET 2.921100 9.558500 0.000000
      CHANNELS 3 Yrotation Xrotation Zrotation
      JOINT LeftShoulder
      {
       OFFSET 13.519700 0.000000 0.000000
       CHANNELS 3 Yrotation Xrotation Zrotation
       JOINT LeftElbow
       {
        OFFSET 0.000000 -29.696600 0.000000
        CHANNELS 3 Yrotation Xrotation Zrotation
        JOINT LeftWrist
        {
         OFFSET 0.000000 -24.004700 0.000000
         CHANNELS 3 Yrotation Xrotation Zrotation
         End Site
         {
          OFFSET 0.000000 -17.728500 0.000000
         }
        }
       }
      }
     }
    }
   }
  }
 }
 JOINT RightHip
 {
  OFFSET -7.771700 -0.012900 -0.001300
  CHANNELS 3 Yrotation Xrotation Zrotation
  JOINT RightKnee
  {
   OFFSET 0.000000 -40.869800 0.001200
   CHANNELS 3 Yrotation Xrotation Zrotation
   JOINT RightAnkle
   {
    OFFSET 0.000000 -39.717900 0.002100
    CHANNELS 3 Yrotation Xrotation Zrotation
    JOINT RightToe
    {
     OFFSET 0.000000 -4.965400 11.033500
     CHANNELS 3 Yrotation Xrotation Zrotation
     End Site
     {
      OFFSET 0.000000 -1.423100 5.872300
     }
    }
   }
  }
 }
 JOINT LeftHip
 {
  OFFSET 7.771700 -0.012900 -0.001300
  CHANNELS 3 Yrotation Xrotation Zrotation
  JOINT LeftKnee
  {
   OFFSET 0.000000 -40.869800 0.001200
   CHANNELS 3 Yrotation Xrotation Zrotation
   JOINT LeftAnkle
   {
    OFFSET 0.000000 -39.717900 0.002100
    CHANNELS 3 Yrotation Xrotation Zrotation
    JOINT LeftToe
    {
     OFFSET 0.000000 -4.965400 11.033500
     CHANNELS 3 Yrotation Xrotation Zrotation
     End Site
     {
      OFFSET 0.000000 -1.423100 5.872300
     }
    }
   }
  }
 }
}
MOTION
Frames: 8
Frame Time: 0.008333
-2.735482 52.233574 33.662701 170.464663 -38.404484 -1.772023 3.627753 23.943335 2.582007 0.415834 3.660812 0.470982 0.665773 5.868160 0.763985 2.741892 19.928618 3.004425 1.172663 15.008769 -0.613752 2.435659 -7.894009 -1.583605 -4.849033 0.083090 -3.385833 -2.400599 -5.614770 3.726305 -170.360753 -76.435988 -174.465876 9.531206 13.927187 17.627830 -5.678245 1.343572 0.260777 7.472341 -5.074699 1.400298 159.567985 -72.642300 -175.440044 -11.055255 9.679313 -2.846989 -4.648491 -42.958870 2.807990 -138.659560 85.894632 -133.822872 0.596212 -9.817835 -4.127519 0.360852 -0.835817 0.143714 0.560857 -39.346598 6.065320 72.272443 83.408505 62.011949 -5.718267 -12.646569 9.654006 0.441749 1.384174 0.196709
-2.736200 52.233657 33.670209 170.453496 -38.425697 -1.775690 3.621256 23.944832 2.580810 0.405853 3.647448 0.461789 0.685940 5.892733 0.771113 2.739899 19.934654 3.006042 1.181968 15.013775 -0.611851 2.441354 -7.883644 -1.577300 -4.843104 0.081537 -3.372361 -2.402581 -5.744881 3.624602 -168.413932 -76.658391 -176.360826 10.482135 14.991947 19.722698 -5.680922 1.353823 0.262900 7.656683 -5.114348 1.326078 155.246560 -73.016839 -171.478465 -11.726100 11.720890 -5.790154 -4.656624 -42.938365 2.822911 -138.553220 85.904107 -133.718545 0.596276 -9.807281 -4.131195 0.359381 -0.836717 0.146189 0.562904 -39.326897 6.079783 72.238392 83.406892 61.980139 -5.726018 -12.645494 9.651935 0.445345 1.388408 0.199523
-2.736865 52.236228 33.674873 170.451127 -38.468106 -1.783817 3.620404 23.965712 2.581332 0.403232 3.652884 0.463867 0.695111 5.905649 0.775292 2.728997 19.935958 2.994836 1.189921 15.019656 -0.603079 2.450865 -7.880210 -1.571339 -4.825199 0.029915 -3.329887 -2.395060 -5.813836 3.490608 -166.778279 -76.827676 -177.964243 11.503962 15.935844 21.805680 -5.683898 1.358187 0.277213 7.846512 -5.153705 1.255249 150.742472 -73.294325 -167.344439 -12.487727 13.594275 -8.743262 -4.668408 -42.893893 2.835536 -138.465251 85.912213 -133.635653 0.596561 -9.796900 -4.131775 0.354474 -0.846157 0.151638 0.559769 -39.286210 6.092590 72.217054 83.406476 61.962956 -5.733581 -12.634625 9.649618 0.446191 1.381307 0.201189
-2.738161 52.237341 33.681410 170.431511 -38.494604 -1.780491 3.626784 23.973515 2.580963 0.410339 3.663384 0.466849 0.688600 5.903402 0.772098 2.729276 19.943257 2.992098 1.194176 15.001466 -0.603458 2.467130 -7.863452 -1.561000 -4.804786 -0.001510 -3.315266 -2.381425 -5.889087 3.373700 -165.592293 -76.945334 -179.142388 12.574862 16.744827 23.883678 -5.677948 1.359048 0.288440 8.032084 -5.192514 1.193680 146.391788 -73.459000 -163.368037 -13.317723 15.314244 -11.656157 -4.676238 -42.866908 2.851710 -138.324312 85.925094 -133.501900 0.595205 -9.782910 -4.134073 0.356996 -0.848952 0.152149 0.573407 -39.259686 6.102796 72.140198 83.402350 61.886858 -5.728412 -12.619666 9.652479 0.454436 1.373217 0.201641
-2.739091 52.238037 33.688364 170.409490 -38.515645 -1.779063 3.628613 23.959340 2.577687 0.424418 3.690118 0.473154 0.677276 5.885234 0.765808 2.734498 19.950405 2.990398 1.206012 15.010841 -0.599293 2.474247 -7.927500 -1.575228 -4.777912 -0.022819 -3.305977 -2.369672 -5.945964 3.260974 -164.923211 -77.018218 -179.827054 13.667847 17.399514 25.969562 -5.664706 1.360919 0.313574 8.210926 -5.213812 1.139939 142.520684 -73.507957 -159.830890 -14.264357 16.876048 -14.554512 -4.681872 -42.844241 2.868700 -138.205896 85.939599 -133.388120 0.597163 -9.775764 -4.128882 0.357034 -0.842617 0.142979 0.588315 -39.239192 6.115400 72.096906 83.399596 61.847821 -5.726704 -12.616280 9.654071 0.452238 1.373624 0.201227
-2.739712 52.239002 33.694533 170.395529 -38.538283 -1.784103 3.640265 23.963211 2.589602 0.417159 3.675224 0.469882 0.685755 5.901640 0.768998 2.736691 19.951464 2.991018 1.204970 15.014229 -0.601220 2.470015 -8.002246 -1.595921 -4.756249 -0.056932 -3.305999 -2.365943 -5.982014 3.151556 -164.757943 -77.050707 179.978325 14.752457 17.885260 28.073180 -5.659180 1.372483 0.316367 8.380050 -5.248741 1.123409 139.436526 -73.480604 -157.010687 -15.320710 18.194161 -17.485003 -4.704768 -42.817623 2.888390 -138.117351 85.955553 -133.308341 0.612008 -9.768546 -4.131797 0.347224 -0.837630 0.136940 0.593976 -39.218237 6.132477 72.066625 83.399146 61.820970 -5.727104 -12.610110 9.652875 0.457832 1.371296 0.203915
-2.741373 52.239050 33.700835 170.382420 -38.552284 -1.783500 3.651554 23.957395 2.594650 0.417706 3.685179 0.472101 0.686765 5.892705 0.766923 2.740291 19.951942 2.992032 1.199216 14.994181 -0.603667 2.460773 -8.063788 -1.614726 -4.744253 -0.095901 -3.304388 -2.369349 -6.000237 3.045611 -164.970668 -77.043423 -179.834981 15.809829 18.207727 30.205648 -5.655164 1.386223 0.321824 8.540055 -5.280484 1.130469 137.305230 -73.437276 -155.105216 -16.381095 19.266051 -20.397170 -4.712223 -42.804069 2.892159 -137.965976 85.961252 -133.155161 0.630946 -9.755242 -4.141899 0.342447 -0.841126 0.138891 0.615116 -39.207253 6.127276 72.059857 83.385727 61.828371 -5.722207 -12.604479 9.651851 0.454715 1.369759 0.201847
-2.743978 52.239616 33.705183 170.381252 -38.571701 -1.781895 3.652553 23.966992 2.592691 0.417154 3.685461 0.472718 0.689527 5.882833 0.763808 2.745106 19.952057 2.992333 1.190055 14.966774 -0.607381 2.446825 -8.140025 -1.633151 -4.741457 -0.137169 -3.304048 -2.386607 -6.005543 2.950894 -165.326257 -76.996707 -179.490478 16.838970 18.380428 32.386541 -5.654641 1.392988 0.332657 8.694777 -5.302578 1.163264 136.140497 -73.404138 -154.153951 -17.422899 20.149479 -23.273561 -4.716968 -42.784804 2.885412 -137.943862 85.968483 -133.134061 0.635932 -9.752519 -4.141297 0.338687 -0.841688 0.136656 0.626836 -39.189969 6.117703 72.055209 83.374829 61.834100 -5.730665 -12.595774 9.646528 0.461246 1.366749 0.204906
